<svg width="375" height="53" viewBox="0 0 375 53" fill="none" xmlns="http://www.w3.org/2000/svg">
<rect width="375" height="53" fill="white"/>
<path d="M348.333 21.6667L353.667 27L348.333 32.3333" stroke="#0B0C0E" stroke-width="1.5" stroke-linecap="round" stroke-linejoin="round"/>
<path d="M17.4 33H18.702V28.926H20.396C22.65 28.926 24.176 27.918 24.176 25.748C24.176 23.508 22.636 22.724 20.34 22.724H17.4V33ZM18.702 27.876V23.788H20.172C21.978 23.788 22.888 24.264 22.888 25.748C22.888 27.218 22.034 27.876 20.228 27.876H18.702ZM26.1337 33H27.4077V28.114C27.9117 26.812 28.6957 26.364 29.3257 26.364C29.6337 26.364 29.8157 26.392 30.0677 26.49L30.3057 25.37C30.0677 25.244 29.8297 25.202 29.4937 25.202C28.6397 25.202 27.8697 25.818 27.3377 26.784H27.2957L27.1837 25.398H26.1337V33ZM34.365 33.182C36.227 33.182 37.893 31.726 37.893 29.206C37.893 26.672 36.227 25.202 34.365 25.202C32.503 25.202 30.837 26.672 30.837 29.206C30.837 31.726 32.503 33.182 34.365 33.182ZM34.365 32.118C33.049 32.118 32.167 30.956 32.167 29.206C32.167 27.456 33.049 26.266 34.365 26.266C35.681 26.266 36.577 27.456 36.577 29.206C36.577 30.956 35.681 32.118 34.365 32.118ZM42.4913 33.182C43.4013 33.182 44.1993 32.692 44.8013 32.104H44.8433L44.9553 33H45.9913V21.856H44.7313V24.782L44.7873 26.098C44.1153 25.538 43.5413 25.202 42.6453 25.202C40.9093 25.202 39.3553 26.742 39.3553 29.206C39.3553 31.74 40.5873 33.182 42.4913 33.182ZM42.7713 32.118C41.4273 32.118 40.6713 31.026 40.6713 29.192C40.6713 27.456 41.6373 26.28 42.8693 26.28C43.4993 26.28 44.0733 26.504 44.7313 27.078V31.068C44.0873 31.768 43.4713 32.118 42.7713 32.118ZM50.7949 33.182C51.8449 33.182 52.6009 32.636 53.3149 31.81H53.3569L53.4549 33H54.5189V25.398H53.2449V30.788C52.5169 31.698 51.9709 32.076 51.1869 32.076C50.1789 32.076 49.7589 31.474 49.7589 30.06V25.398H48.4849V30.214C48.4849 32.146 49.1989 33.182 50.7949 33.182ZM60.0828 33.182C60.9928 33.182 61.8608 32.832 62.5468 32.216L61.9868 31.362C61.5108 31.796 60.8948 32.118 60.1948 32.118C58.7948 32.118 57.8428 30.956 57.8428 29.206C57.8428 27.456 58.8508 26.266 60.2368 26.266C60.8388 26.266 61.3008 26.546 61.7488 26.938L62.4068 26.098C61.8608 25.622 61.1748 25.202 60.1808 25.202C58.2348 25.202 56.5128 26.672 56.5128 29.206C56.5128 31.726 58.0668 33.182 60.0828 33.182ZM66.4535 33.182C66.9155 33.182 67.4195 33.042 67.8535 32.902L67.6015 31.95C67.3495 32.048 66.9995 32.146 66.7335 32.146C65.8515 32.146 65.5575 31.614 65.5575 30.676V26.434H67.6155V25.398H65.5575V23.256H64.4935L64.3395 25.398L63.1495 25.468V26.434H64.2835V30.648C64.2835 32.16 64.8295 33.182 66.4535 33.182ZM72.5797 33H75.2117C78.3057 33 79.9997 31.082 79.9997 27.834C79.9997 24.572 78.3057 22.724 75.1557 22.724H72.5797V33ZM73.8817 31.936V23.788H75.0437C77.4657 23.788 78.6557 25.23 78.6557 27.834C78.6557 30.424 77.4657 31.936 75.0437 31.936H73.8817ZM85.145 33.182C86.181 33.182 86.993 32.832 87.665 32.398L87.203 31.558C86.643 31.936 86.041 32.16 85.299 32.16C83.857 32.16 82.863 31.124 82.779 29.5H87.903C87.931 29.318 87.959 29.052 87.959 28.772C87.959 26.602 86.867 25.202 84.935 25.202C83.171 25.202 81.505 26.742 81.505 29.206C81.505 31.712 83.129 33.182 85.145 33.182ZM82.765 28.576C82.919 27.092 83.871 26.224 84.949 26.224C86.139 26.224 86.839 27.05 86.839 28.576H82.765ZM91.819 33.182C93.611 33.182 94.591 32.16 94.591 30.928C94.591 29.486 93.373 29.038 92.267 28.618C91.413 28.296 90.629 28.03 90.629 27.302C90.629 26.714 91.077 26.21 92.043 26.21C92.715 26.21 93.247 26.49 93.765 26.882L94.381 26.056C93.793 25.594 92.967 25.202 92.029 25.202C90.377 25.202 89.397 26.154 89.397 27.358C89.397 28.646 90.559 29.164 91.623 29.556C92.463 29.878 93.359 30.214 93.359 30.998C93.359 31.656 92.869 32.188 91.861 32.188C90.951 32.188 90.265 31.824 89.607 31.292L88.977 32.132C89.705 32.734 90.741 33.182 91.819 33.182ZM99.3758 33.182C100.286 33.182 101.154 32.832 101.84 32.216L101.28 31.362C100.804 31.796 100.188 32.118 99.4878 32.118C98.0878 32.118 97.1358 30.956 97.1358 29.206C97.1358 27.456 98.1438 26.266 99.5298 26.266C100.132 26.266 100.594 26.546 101.042 26.938L101.7 26.098C101.154 25.622 100.468 25.202 99.4738 25.202C97.5278 25.202 95.8058 26.672 95.8058 29.206C95.8058 31.726 97.3598 33.182 99.3758 33.182ZM103.503 33H104.777V28.114C105.281 26.812 106.065 26.364 106.695 26.364C107.003 26.364 107.185 26.392 107.437 26.49L107.675 25.37C107.437 25.244 107.199 25.202 106.863 25.202C106.009 25.202 105.239 25.818 104.707 26.784H104.665L104.553 25.398H103.503V33ZM108.931 33H110.205V25.398H108.931V33ZM109.575 23.83C110.079 23.83 110.429 23.494 110.429 22.976C110.429 22.486 110.079 22.15 109.575 22.15C109.071 22.15 108.721 22.486 108.721 22.976C108.721 23.494 109.071 23.83 109.575 23.83ZM112.786 36.206H114.06V33.63L114.032 32.3C114.718 32.86 115.446 33.182 116.132 33.182C117.882 33.182 119.436 31.684 119.436 29.08C119.436 26.742 118.372 25.202 116.412 25.202C115.53 25.202 114.676 25.706 113.99 26.266H113.948L113.836 25.398H112.786V36.206ZM115.922 32.118C115.418 32.118 114.746 31.908 114.06 31.32V27.33C114.802 26.644 115.46 26.28 116.104 26.28C117.546 26.28 118.106 27.414 118.106 29.094C118.106 30.984 117.182 32.118 115.922 32.118ZM123.602 33.182C124.064 33.182 124.568 33.042 125.002 32.902L124.75 31.95C124.498 32.048 124.148 32.146 123.882 32.146C123 32.146 122.706 31.614 122.706 30.676V26.434H124.764V25.398H122.706V23.256H121.642L121.488 25.398L120.298 25.468V26.434H121.432V30.648C121.432 32.16 121.978 33.182 123.602 33.182ZM126.485 33H127.759V25.398H126.485V33ZM127.129 23.83C127.633 23.83 127.983 23.494 127.983 22.976C127.983 22.486 127.633 22.15 127.129 22.15C126.625 22.15 126.275 22.486 126.275 22.976C126.275 23.494 126.625 23.83 127.129 23.83ZM133.295 33.182C135.157 33.182 136.823 31.726 136.823 29.206C136.823 26.672 135.157 25.202 133.295 25.202C131.433 25.202 129.767 26.672 129.767 29.206C129.767 31.726 131.433 33.182 133.295 33.182ZM133.295 32.118C131.979 32.118 131.097 30.956 131.097 29.206C131.097 27.456 131.979 26.266 133.295 26.266C134.611 26.266 135.507 27.456 135.507 29.206C135.507 30.956 134.611 32.118 133.295 32.118ZM138.831 33H140.105V27.484C140.875 26.714 141.407 26.322 142.191 26.322C143.199 26.322 143.633 26.924 143.633 28.352V33H144.907V28.184C144.907 26.238 144.179 25.202 142.583 25.202C141.547 25.202 140.763 25.776 140.035 26.49H139.993L139.881 25.398H138.831V33Z" fill="#212C3D"/>
</svg>
